<?xml version="1.0" encoding="utf-8"?>
<!-- Generator: Adobe Illustrator 19.0.0, SVG Export Plug-In . SVG Version: 6.00 Build 0)  -->
<svg version="1.1" id="Capa_1" xmlns="http://www.w3.org/2000/svg" xmlns:xlink="http://www.w3.org/1999/xlink" x="0px" y="0px"
	 viewBox="-290 413.6 14.3 14.3" style="enable-background:new -290 413.6 14.3 14.3;" xml:space="preserve">
<style type="text/css">
	.st0{fill:#FF9900;}
</style>
<g>
	<g>
		<path class="st0" d="M-284.7,419.3c0-1.1-0.5-1.6-1.3-1.6c-0.3,0-0.6,0-0.7,0.1v3.1c0.2,0.1,0.4,0.1,0.6,0.1
			C-285.2,421-284.7,420.4-284.7,419.3z"/>
		<path class="st0" d="M-290,425.6l8.6,2.2v-14.1l-8.6,2.2V425.6z M-287.4,417c0.4-0.1,0.8-0.2,1.4-0.2c0.7,0,1.2,0.2,1.6,0.7
			c0.3,0.4,0.5,1,0.5,1.7c0,0.7-0.2,1.3-0.4,1.7c-0.4,0.6-1,0.9-1.7,0.9c-0.2,0-0.4,0-0.6-0.1v3.2h-0.7V417z"/>
		<polygon class="st0" points="-280.6,415.5 -280.6,416.3 -277.7,416.3 -277.7,418.8 -280.6,418.8 -280.6,419.7 -277.7,419.7 
			-277.7,420.8 -280.6,420.8 -280.6,421.6 -277.7,421.6 -277.7,422.7 -280.6,422.7 -280.6,423.7 -277.7,423.7 -277.7,424.7 
			-280.6,424.7 -280.6,426.5 -275.7,426.5 -275.7,415.5 		"/>
	</g>
</g>
</svg>
