<?xml version="1.0" encoding="utf-8"?>
<!-- Generator: Adobe Illustrator 19.0.0, SVG Export Plug-In . SVG Version: 6.00 Build 0)  -->
<svg version="1.1" id="Layer_1" xmlns="http://www.w3.org/2000/svg" xmlns:xlink="http://www.w3.org/1999/xlink" x="0px" y="0px"
	 viewBox="0 0 210 29" style="enable-background:new 0 0 210 29;" xml:space="preserve">
<style type="text/css">
	.st0{fill:#28A8E0;}
	.st1{fill:#FFFFFF;}
</style>
<g id="XMLID_2_">
	<path id="XMLID_23_" class="st0" d="M50.3,4.8c-3.1,0-5.5,0.9-7.2,2.7c-1.7,1.8-2.5,4.3-2.5,7.4c0,1.5,0.2,2.9,0.6,4.1
		c0.4,1.2,1,2.3,1.8,3.2c0.8,0.9,1.7,1.6,2.9,2.1c1.2,0.5,2.5,0.7,4.1,0.7c1,0,1.8,0,2.5-0.1c0.7-0.1,1.3-0.2,1.7-0.3v-10h5.5v13.4
		c-0.8,0.3-2,0.6-3.9,0.9c-1.8,0.3-3.9,0.5-6.3,0.5c-2.2,0-4.2-0.3-6-1c-1.8-0.6-3.4-1.6-4.6-2.8c-1.3-1.2-2.3-2.8-3-4.6
		c-0.7-1.8-1.1-3.9-1.1-6.2c0-2.3,0.4-4.4,1.2-6.2c0.8-1.8,1.8-3.3,3.2-4.6c1.3-1.3,2.9-2.2,4.7-2.8c1.8-0.6,3.7-1,5.8-1
		c1.4,0,2.6,0.1,3.7,0.3c1.1,0.2,2,0.4,2.8,0.6c0.8,0.2,1.4,0.4,2,0.7c0.5,0.2,0.9,0.4,1.1,0.5l-1.7,4.2c-0.9-0.5-2-0.9-3.3-1.2
		C53.1,5,51.7,4.8,50.3,4.8z"/>
	<path id="XMLID_20_" class="st1" d="M71.6,10.7c0.4-0.3,1.1-0.5,2-0.8c0.9-0.3,1.9-0.4,3.1-0.4c1.4,0,2.7,0.2,3.8,0.7
		c1.1,0.5,2.1,1.2,2.8,2c0.8,0.9,1.4,1.9,1.8,3.1c0.4,1.2,0.6,2.5,0.6,4c0,1.5-0.2,2.9-0.7,4.1c-0.5,1.2-1.2,2.3-2,3.1
		c-0.9,0.8-1.9,1.5-3.2,2c-1.2,0.5-2.6,0.7-4.2,0.7c-1.7,0-3.1-0.1-4.4-0.3c-1.3-0.2-2.3-0.4-3.2-0.7v-27l3.6-0.6V10.7z M71.6,25.7
		c0.4,0.1,0.9,0.2,1.5,0.3c0.7,0.1,1.5,0.1,2.5,0.1c1.9,0,3.5-0.6,4.6-1.8c1.2-1.2,1.7-2.9,1.7-5.1c0-1-0.1-1.9-0.3-2.7
		c-0.2-0.8-0.5-1.6-1-2.2c-0.5-0.6-1.1-1.1-1.8-1.5c-0.7-0.3-1.6-0.5-2.6-0.5c-1,0-1.9,0.2-2.7,0.5c-0.8,0.3-1.5,0.6-1.9,1V25.7z"/>
	<path id="XMLID_17_" class="st1" d="M88.8,19.3c0-1.7,0.3-3.1,0.8-4.4c0.5-1.2,1.2-2.3,2-3.1c0.8-0.8,1.8-1.4,2.9-1.8
		c1.1-0.4,2.2-0.6,3.4-0.6c2.7,0,4.8,0.8,6.2,2.4c1.4,1.6,2.2,4,2.2,7.2c0,0.1,0,0.3,0,0.6c0,0.2,0,0.4,0,0.6H92.5
		c0.2,2,0.8,3.4,1.8,4.5c1.1,1,2.7,1.5,4.9,1.5c1.3,0,2.3-0.1,3.2-0.3c0.9-0.2,1.5-0.4,1.9-0.6l0.5,2.8c-0.4,0.2-1.2,0.4-2.3,0.7
		c-1.1,0.2-2.3,0.4-3.7,0.4c-1.7,0-3.3-0.2-4.5-0.7c-1.3-0.5-2.3-1.2-3.1-2c-0.8-0.9-1.4-1.9-1.8-3.1C89,22,88.8,20.7,88.8,19.3z
		 M102.5,17.4c0-1.5-0.4-2.8-1.2-3.8c-0.8-1-2-1.5-3.5-1.5c-0.8,0-1.5,0.2-2.2,0.5c-0.6,0.3-1.2,0.7-1.6,1.2c-0.4,0.5-0.8,1-1,1.7
		c-0.2,0.6-0.4,1.3-0.5,1.9H102.5z"/>
	<path id="XMLID_14_" class="st1" d="M123.2,1.1l3.6-0.6v27.6c-0.8,0.2-1.9,0.4-3.2,0.7c-1.3,0.2-2.8,0.3-4.4,0.3
		c-1.5,0-2.9-0.2-4.2-0.7c-1.2-0.5-2.3-1.1-3.2-2c-0.9-0.8-1.5-1.9-2-3.1c-0.5-1.2-0.7-2.6-0.7-4.1c0-1.5,0.2-2.8,0.6-4
		c0.4-1.2,1-2.2,1.8-3.1c0.8-0.9,1.7-1.5,2.8-2c1.1-0.5,2.4-0.7,3.8-0.7c1.2,0,2.2,0.1,3.1,0.4c0.9,0.3,1.5,0.6,2,0.8V1.1z
		 M123.2,13.8c-0.4-0.3-1.1-0.7-1.9-1c-0.8-0.3-1.7-0.5-2.7-0.5c-1,0-1.9,0.2-2.6,0.5c-0.7,0.4-1.3,0.8-1.8,1.5
		c-0.5,0.6-0.8,1.3-1,2.2c-0.2,0.8-0.3,1.8-0.3,2.7c0,2.2,0.6,3.9,1.7,5.1c1.2,1.2,2.7,1.8,4.6,1.8c1,0,1.8,0,2.5-0.1
		c0.7-0.1,1.2-0.2,1.5-0.3V13.8z"/>
	<path id="XMLID_11_" class="st1" d="M135.5,10.7c0.4-0.3,1.1-0.5,2-0.8c0.9-0.3,1.9-0.4,3.1-0.4c1.4,0,2.7,0.2,3.8,0.7
		c1.1,0.5,2.1,1.2,2.8,2c0.8,0.9,1.4,1.9,1.8,3.1c0.4,1.2,0.6,2.5,0.6,4c0,1.5-0.2,2.9-0.7,4.1c-0.5,1.2-1.1,2.3-2,3.1
		c-0.9,0.8-1.9,1.5-3.2,2c-1.2,0.5-2.6,0.7-4.2,0.7c-1.7,0-3.1-0.1-4.4-0.3c-1.3-0.2-2.3-0.4-3.2-0.7v-27l3.6-0.6V10.7z M135.5,25.7
		c0.4,0.1,0.9,0.2,1.5,0.3c0.7,0.1,1.5,0.1,2.4,0.1c1.9,0,3.5-0.6,4.6-1.8c1.2-1.2,1.7-2.9,1.7-5.1c0-1-0.1-1.9-0.3-2.7
		c-0.2-0.8-0.5-1.6-1-2.2c-0.5-0.6-1.1-1.1-1.8-1.5c-0.7-0.3-1.6-0.5-2.6-0.5c-1,0-1.9,0.2-2.7,0.5c-0.8,0.3-1.4,0.6-1.9,1V25.7z"/>
	<path id="XMLID_8_" class="st1" d="M160.3,9.4c1.4,0,2.7,0.2,3.6,0.5c1,0.4,1.8,0.8,2.4,1.5c0.6,0.6,1,1.4,1.3,2.3
		c0.3,0.9,0.4,1.9,0.4,2.9v11.8c-0.3,0.1-0.7,0.1-1.3,0.2c-0.6,0.1-1.2,0.2-1.9,0.2c-0.7,0.1-1.4,0.1-2.3,0.2
		c-0.8,0.1-1.6,0.1-2.4,0.1c-1.1,0-2.2-0.1-3.1-0.3c-1-0.2-1.8-0.6-2.5-1c-0.7-0.5-1.2-1.1-1.6-1.9c-0.4-0.8-0.6-1.7-0.6-2.8
		c0-1,0.2-1.9,0.7-2.7c0.5-0.7,1.1-1.4,1.8-1.8c0.8-0.5,1.7-0.8,2.7-1c1-0.2,2.1-0.3,3.2-0.3c0.4,0,0.7,0,1.1,0.1
		c0.4,0,0.8,0.1,1.1,0.1c0.3,0.1,0.6,0.1,0.9,0.2c0.3,0,0.4,0.1,0.5,0.1v-0.9c0-0.6-0.1-1.1-0.2-1.6c-0.1-0.5-0.4-1-0.7-1.4
		c-0.3-0.4-0.8-0.8-1.4-1c-0.6-0.3-1.3-0.4-2.3-0.4c-1.2,0-2.2,0.1-3.1,0.2c-0.9,0.2-1.5,0.3-2,0.5l-0.4-2.8
		c0.5-0.2,1.2-0.4,2.3-0.6C157.8,9.5,159,9.4,160.3,9.4z M160.6,26.3c0.8,0,1.6,0,2.3-0.1c0.7,0,1.2-0.1,1.6-0.2v-5.6
		c-0.3-0.1-0.7-0.2-1.3-0.3c-0.6-0.1-1.3-0.1-2.1-0.1c-0.5,0-1.1,0-1.7,0.1c-0.6,0.1-1.2,0.2-1.7,0.5c-0.5,0.2-0.9,0.5-1.3,0.9
		c-0.3,0.4-0.5,0.9-0.5,1.6c0,1.2,0.4,2,1.2,2.5C158,26,159.2,26.3,160.6,26.3z"/>
	<path id="XMLID_6_" class="st1" d="M172.3,10.4c0.8-0.2,1.9-0.4,3.3-0.6c1.4-0.2,2.9-0.3,4.7-0.3c1.6,0,2.9,0.2,4,0.6
		c1.1,0.4,1.9,1,2.5,1.8c0.6,0.8,1.1,1.7,1.3,2.7c0.3,1.1,0.4,2.2,0.4,3.5v10.6h-3.6v-9.9c0-1.2-0.1-2.1-0.3-3
		c-0.2-0.8-0.4-1.5-0.8-2c-0.4-0.5-0.9-0.9-1.5-1.1c-0.6-0.2-1.4-0.3-2.4-0.3c-0.4,0-0.8,0-1.2,0c-0.4,0-0.8,0.1-1.2,0.1
		c-0.4,0-0.7,0.1-1,0.1c-0.3,0-0.5,0.1-0.6,0.1v15.9h-3.6V10.4z"/>
	<path id="XMLID_4_" class="st1" d="M200.7,18.3c0.8,0.6,1.6,1.2,2.4,2.1c0.9,0.8,1.7,1.7,2.5,2.7c0.8,1,1.6,1.9,2.4,2.9
		c0.7,1,1.4,1.9,1.9,2.7h-4.2c-0.5-0.8-1.2-1.7-1.9-2.6c-0.7-0.9-1.4-1.7-2.2-2.5c-0.8-0.8-1.6-1.6-2.4-2.2
		c-0.8-0.7-1.6-1.2-2.3-1.7v9.1h-3.6V1.1l3.6-0.6v17.2c0.6-0.6,1.3-1.2,2-1.9c0.7-0.7,1.5-1.4,2.2-2.1c0.7-0.7,1.4-1.4,2-2.1
		c0.6-0.7,1.2-1.2,1.7-1.8h4.2c-0.6,0.6-1.2,1.3-1.9,2c-0.7,0.7-1.4,1.5-2.2,2.2c-0.7,0.7-1.5,1.5-2.3,2.2
		C202.1,17,201.4,17.7,200.7,18.3z"/>
	<path id="XMLID_3_" class="st0" d="M25.4,0.5h-0.7c-0.6,1-1.4,2.3-2.1,3.7c-0.8,1.5-1.6,3-2.4,4.7c-0.8,1.6-1.6,3.3-2.4,5
		c-0.8,1.7-1.5,3.2-2.2,4.7c-0.7-1.4-1.4-3-2.2-4.7c-0.8-1.7-1.6-3.3-2.4-5c-0.8-1.6-1.6-3.2-2.4-4.7C7.7,2.8,7,1.6,6.4,0.5H5.4H0
		v28.4h5.4V9.1c0-0.2,0-0.4,0.1-0.7C5.8,9,6.2,9.8,6.6,10.6c0.4,0.9,0.9,1.8,1.4,2.8c0.5,1,1,2,1.5,3.1c0.5,1.1,1,2.1,1.5,3.1
		c0.5,1,0.9,2,1.3,2.8c0.4,0.9,0.8,1.6,1.1,2.3h4.1c0.3-0.6,0.6-1.4,1.1-2.2c0.4-0.9,0.9-1.8,1.3-2.8c0.5-1,1-2.1,1.5-3.1
		c0.5-1.1,1-2.1,1.5-3.1c0.5-1,1-1.9,1.4-2.8c0.4-0.8,0.7-1.5,1-2v20.3h5.4V0.5H25.4z"/>
</g>
</svg>
